<mxfile host="app.diagrams.net" modified="2024-01-24T09:20:12.964Z" agent="Mozilla/5.0 (Windows NT 10.0; Win64; x64) AppleWebKit/537.36 (KHTML, like Gecko) Chrome/120.0.0.0 Safari/537.36" version="22.1.21" etag="NWoXESUKR7Pj5prwe7A8" type="github">
  <diagram name="Page-1" id="eXGvBXfo8s749yaHPP8I">
    <mxGraphModel>
      <root>
        <mxCell id="0" />
        <mxCell id="1" parent="0" />
      </root>
    </mxGraphModel>
  </diagram>
</mxfile>
